<svg width="20" height="20" viewBox="0 0 20 20" fill="none" xmlns="http://www.w3.org/2000/svg">
<g id="arrow-redo" clip-path="url(#clip0_17_198)">
<path id="Vector" d="M0.518752 19.9515C0.367319 19.8926 0.235941 19.7817 0.142947 19.6343C0.0499526 19.4869 -2.01738e-05 19.3103 6.10936e-09 19.1293C6.10936e-09 15.1567 0.705772 11.9797 2.09857 9.68579C3.78126 6.91421 6.4356 5.4219 10 5.23659V0.869441C10 0.699179 10.0443 0.532668 10.1273 0.390565C10.2102 0.248461 10.3283 0.137018 10.4668 0.0700607C10.6052 0.00310327 10.7581 -0.016422 10.9063 0.013907C11.0545 0.044236 11.1916 0.123085 11.3005 0.240671L19.7621 9.37059C19.8373 9.45178 19.8971 9.54936 19.938 9.65743C19.9789 9.7655 20 9.88182 20 9.99936C20 10.1169 19.9789 10.2332 19.938 10.3413C19.8971 10.4494 19.8373 10.5469 19.7621 10.6281L11.3005 19.7581C11.1916 19.8756 11.0545 19.9545 10.9063 19.9848C10.7581 20.0152 10.6052 19.9956 10.4668 19.9287C10.3283 19.8617 10.2102 19.7503 10.1273 19.6082C10.0443 19.4661 10 19.2996 10 19.1293V14.7942C7.83657 14.8681 6.20194 15.2643 4.9005 16.0246C3.49424 16.8463 2.47453 18.0739 1.37549 19.6657C1.27689 19.8084 1.14134 19.9127 0.987756 19.9642C0.83417 20.0156 0.670208 20.0116 0.518752 19.9526V19.9515Z" fill="white"/>
</g>
<defs>
<clipPath id="clip0_17_198">
<rect width="20" height="20" fill="white"/>
</clipPath>
</defs>
</svg>
